<?xml version="1.0" encoding="utf-8"?>
<!-- Generator: Adobe Illustrator 26.0.2, SVG Export Plug-In . SVG Version: 6.00 Build 0)  -->
<svg version="1.1" id="Livello_1" xmlns="http://www.w3.org/2000/svg" xmlns:xlink="http://www.w3.org/1999/xlink" x="0px" y="0px"
	 viewBox="0 0 95 102.8" style="enable-background:new 0 0 95 102.8;" xml:space="preserve">
<style type="text/css">
	.st0{fill:#FFFFFF;}
</style>
<g id="Livello_2_00000087380614839656160890000015701432409831156878_">
</g>
<g id="Livello_1_00000131334951808054857770000016325120992492335750_">
	<g>
		<path class="st0" d="M75.9,60.8l-15,3.4c-1.2-1.6-3.1-2.7-5.3-2.8l-22.8-1c-3.3-0.1-6.5,0.9-9.1,2.9l-12.6,9.8l-10.4,11
			c-1,1-0.9,2.6,0.1,3.6L16,102.1c1,1,2.6,0.9,3.6-0.1l9.1-9.5L44.5,94c5.4,0.5,10.8-0.9,15.3-3.9l22.4-15.2c2.7-1.8,4-5.2,3.2-8.4
			C84.2,62.4,80.1,59.9,75.9,60.8z M17.6,96.7l-11.5-11l6.4-6.8l11.5,11L17.6,96.7z M79.2,70.8L56.8,86c-3.5,2.4-7.8,3.5-12,3
			l-16.1-1.6L16.2,75.6l10.6-8.2c1.6-1.3,3.7-1.9,5.8-1.8l22.8,1c1,0,1.8,0.8,1.9,1.8c0.1,1-0.5,1.9-1.5,2.1l-5.5,1.4
			c-2.2,0.6-4.4,0.8-6.6,0.8l-6.5-0.1c-1.4,0-2.5,1.1-2.6,2.5c0,1.4,1.1,2.5,2.5,2.6l6.5,0.2c2.7,0.1,5.4-0.2,8-0.9l5.5-1.4
			c3-0.8,5-3.3,5.2-6.2L77,65.7c1.5-0.3,3,0.6,3.4,2.1C80.7,68.9,80.2,70.1,79.2,70.8z"/>
		<path class="st0" d="M92.5,37.9h-78c-1.4,0-2.5,1.1-2.5,2.5c0,1.4,1.1,2.5,2.5,2.5h2.8l6,9.9c0.5,0.8,1.3,1.2,2.2,1.2h55.8
			c0.9,0,1.7-0.5,2.2-1.2l6-9.9h3c1.4,0,2.5-1.1,2.5-2.5C95,39,93.9,37.9,92.5,37.9z M80,49H27l-3.7-6h60.3L80,49z"/>
	</g>
</g>
<g>
	<path class="st0" d="M69.3,19.4H57.7v11.3h-8.6V19.4H37.6v-8.1h11.5V0h8.6v11.3h11.6V19.4z"/>
</g>
</svg>
