<?xml version="1.0" encoding="utf-8"?>
<!-- Generator: Adobe Illustrator 26.0.1, SVG Export Plug-In . SVG Version: 6.00 Build 0)  -->
<svg version="1.1" id="Livello_1" xmlns="http://www.w3.org/2000/svg" xmlns:xlink="http://www.w3.org/1999/xlink" x="0px" y="0px"
	 viewBox="0 0 90.2 39" style="enable-background:new 0 0 90.2 39;" xml:space="preserve">
<path d="M70.7,0c-4.8,0-9.2,1.7-12.6,4.6l0,0l-8.2,6.2l-4.8,3.7l-4.8-3.7l-8.3-6.3l0,0C28.5,1.7,24.2,0,19.5,0C8.7,0,0,8.7,0,19.5
	S8.7,39,19.5,39c4.4,0,8.4-1.5,11.6-3.9l0,0l8.1-6.1l5.9-4.5L51,29l7.1,5.4l0,0c3.4,2.9,7.8,4.6,12.6,4.6c10.8,0,19.5-8.7,19.5-19.5
	S81.4,0,70.7,0z M19.5,31C13.2,31,8,25.8,8,19.5S13.2,8,19.5,8c2.9,0,5.5,1.1,7.5,2.8h0.1l0,0l11.4,8.7l-11.7,8.9l-0.2,0.1
	c-0.2,0.2-0.5,0.3-0.7,0.5C24.1,30.3,21.9,31,19.5,31z M70.7,31c-2.8,0-5.4-1-7.4-2.8h0l-3-2.2l-8.5-6.5l8.5-6.5l2.8-2.1h0
	c2-1.8,4.7-2.9,7.6-2.9c6.3,0,11.5,5.2,11.5,11.5C82.2,25.8,77,31,70.7,31z"/>
</svg>
