<?xml version="1.0" encoding="utf-8"?>
<!-- Generator: Adobe Illustrator 26.0.1, SVG Export Plug-In . SVG Version: 6.00 Build 0)  -->
<svg version="1.1" id="Livello_1" xmlns="http://www.w3.org/2000/svg" xmlns:xlink="http://www.w3.org/1999/xlink" x="0px" y="0px"
	 viewBox="0 0 77.6 66.1" style="enable-background:new 0 0 77.6 66.1;" xml:space="preserve">
<style type="text/css">
	.st0{fill:#FFFFFF;}
</style>
<g>
	<path class="st0" d="M76.5,11.4L67,1.4c-1.5-1.7-4-1.8-5.6-0.4c-1.7,1.5-1.8,4-0.4,5.6c0.1,0.1,0.1,0.2,0.2,0.2l3.1,3.3H54
		c-2.9,0-5.7,1.3-7.6,3.5L17.5,47.5c-0.4,0.4-0.9,0.7-1.5,0.7H0v8h16c2.9,0,5.7-1.3,7.6-3.5l28.9-33.8c0.4-0.4,0.9-0.7,1.5-0.7h10.3
		l-3.1,3.2c-1.5,1.7-1.3,4.2,0.4,5.6c1.6,1.4,3.9,1.3,5.4-0.1l9.5-10C78,15.3,78,12.9,76.5,11.4z"/>
	<path class="st0" d="M0,18.2h16c0.6,0,1.1,0.3,1.5,0.7l9.6,11.5l6.1-5.2l-9.6-11.4c-1.9-2.3-4.7-3.6-7.6-3.6H0V18.2z"/>
	<path class="st0" d="M76.5,49.5l-9.5-10c-1.6-1.5-4.1-1.5-5.7,0.1c-1.4,1.5-1.5,3.8-0.1,5.4l3.1,3.2h-9.8c-0.9,0-1.7-0.3-2.3-1
		L43,36l-6.2,5.2l9.3,11.1c2.1,2.5,5.2,4,8.5,4h9.7l-3.1,3.2c-1.5,1.7-1.3,4.2,0.4,5.6c1.6,1.4,3.9,1.3,5.4-0.1l9.5-10
		C78,53.4,78.1,51,76.5,49.5z"/>
</g>
</svg>
