<?xml version="1.0" encoding="utf-8"?>
<!-- Generator: Adobe Illustrator 26.0.1, SVG Export Plug-In . SVG Version: 6.00 Build 0)  -->
<svg version="1.1" xmlns="http://www.w3.org/2000/svg" xmlns:xlink="http://www.w3.org/1999/xlink" x="0px" y="0px"
	 viewBox="0 0 95 95" style="enable-background:new 0 0 95 95;" xml:space="preserve">
<g id="Livello_2">
</g>
<g id="Livello_1">
	<path d="M90.4,73.5L72.1,59.3c3.6-5.9,5.8-12.9,5.8-20.3c0-21.5-17.5-39-39-39C17.5,0,0,17.5,0,38.9c0,21.5,17.5,38.9,38.9,38.9
		c7.5,0,14.4-2.1,20.3-5.8l14.3,18.4c0.6,0.8,1.3,1.5,2.1,2.1c5.2,4.1,12.8,3.1,16.9-2.1C96.5,85.1,95.6,77.5,90.4,73.5z M14.3,38.9
		c0-13.6,11-24.6,24.6-24.6s24.6,11.1,24.6,24.6c0,13.6-11,24.6-24.6,24.6S14.3,52.5,14.3,38.9z"/>
</g>
</svg>
